<svg width="40" height="40" viewBox="0 0 40 40" fill="none" xmlns="http://www.w3.org/2000/svg">
<rect x="0.5" y="0.5" width="39" height="39" rx="9.5" fill="none" stroke="#D9E5E2"/>
<path fill-rule="evenodd" clip-rule="evenodd" d="M21 10.75C17.7653 10.75 15.0369 13.1587 14.6356 16.3684L13.8115 22.9612C13.6375 24.3535 14.7232 25.5833 16.1264 25.5833H17.1793L17.1899 25.6072C17.8591 27.113 19.3523 28.0833 21 28.0833C22.6477 28.0833 24.1409 27.113 24.8101 25.6072L24.8207 25.5833H25.8737C27.2769 25.5833 28.3625 24.3535 28.1885 22.9612L27.3644 16.3684C26.9632 13.1587 24.2347 10.75 21 10.75ZM24.3505 24.0833C24.3393 24.0831 24.3281 24.0831 24.317 24.0833H17.683C17.6718 24.0831 17.6607 24.0831 17.6495 24.0833H16.1264C15.6254 24.0833 15.2378 23.6443 15.3 23.1472L16.1241 16.5544C16.4314 14.0954 18.5218 12.25 21 12.25C23.4782 12.25 25.5686 14.0954 25.876 16.5544L26.7001 23.1472C26.7622 23.6443 26.3746 24.0833 25.8737 24.0833H24.3505ZM18.9168 25.5833H23.0832C22.5841 26.2061 21.8221 26.5833 21 26.5833C20.1779 26.5833 19.4159 26.2061 18.9168 25.5833Z" fill="#5B5EA6"/>
</svg>
