<svg width="96" height="40" viewBox="0 0 96 40" fill="none" xmlns="http://www.w3.org/2000/svg">
<rect width="96" height="40" rx="10" fill="white"/>
<path fill-rule="evenodd" clip-rule="evenodd" d="M24.7019 13.3587C25.3836 12.677 25.8426 12.2203 26.2301 11.9246C26.6002 11.6422 26.8157 11.5784 27 11.5784C27.1843 11.5784 27.3998 11.6422 27.7699 11.9246C28.1574 12.2203 28.6164 12.677 29.2981 13.3587L31.4697 15.5303L31.7123 15.7729C32.6227 16.6833 32.9207 17.0001 33.0787 17.3815C33.2367 17.763 33.25 18.1978 33.25 19.4852V22.9999C33.25 24.4354 33.2484 25.4365 33.1469 26.1918C33.0482 26.9256 32.8678 27.3142 32.591 27.5909C32.3142 27.8677 31.9257 28.0481 31.1919 28.1468C30.4365 28.2483 29.4354 28.2499 28 28.2499H26C24.5646 28.2499 23.5635 28.2483 22.8081 28.1468C22.0743 28.0481 21.6858 27.8677 21.409 27.5909C21.1322 27.3142 20.9518 26.9256 20.8531 26.1918C20.7516 25.4365 20.75 24.4354 20.75 22.9999V19.4852C20.75 18.1978 20.7633 17.763 20.9213 17.3815C21.0788 17.0012 21.3756 16.6851 22.2797 15.7809C22.2823 15.7783 22.285 15.7756 22.2877 15.7729L22.5303 15.5303C22.5305 15.5301 22.5307 15.53 22.5308 15.5298L24.7019 13.3587ZM21.4702 14.4691L23.6412 12.298L23.678 12.2613C24.3133 11.6259 24.8431 11.0961 25.3202 10.7321C25.8238 10.3479 26.3559 10.0784 27 10.0784C27.6441 10.0784 28.1762 10.3479 28.6798 10.7321C29.1569 11.0961 29.6867 11.6259 30.322 12.2613L30.3588 12.298L32.5296 14.4689C32.5299 14.4691 32.5301 14.4694 32.5303 14.4696L32.773 14.7123L32.7745 14.7138L32.8738 14.8131C32.9389 14.878 33.0022 14.9413 33.0639 15.0032L37.5303 19.4696C37.8232 19.7625 37.8232 20.2374 37.5303 20.5303C37.2374 20.8232 36.7626 20.8232 36.4697 20.5303L34.7488 18.8094C34.7502 18.9783 34.7501 19.1555 34.75 19.3426L34.75 19.4852V22.9999V23.0548C34.75 24.4224 34.75 25.5247 34.6335 26.3917C34.5125 27.2918 34.2536 28.0497 33.6516 28.6516C33.0497 29.2535 32.2919 29.5124 31.3918 29.6334C30.5248 29.75 29.4225 29.75 28.0549 29.7499H28H26H25.9451C24.5775 29.75 23.4752 29.75 22.6082 29.6334C21.7081 29.5124 20.9503 29.2535 20.3483 28.6516C19.7464 28.0497 19.4875 27.2918 19.3665 26.3917C19.25 25.5247 19.25 24.4224 19.25 23.0548L19.25 22.9999V19.4852L19.25 19.3426C19.2499 19.1555 19.2498 18.9783 19.2512 18.8094L17.5303 20.5303C17.2374 20.8232 16.7626 20.8232 16.4697 20.5303C16.1768 20.2374 16.1768 19.7625 16.4697 19.4696L20.9359 15.0034C20.9977 14.9414 21.0611 14.8781 21.1262 14.8131L21.1262 14.8131L21.2262 14.713L21.227 14.7123L21.4697 14.4696C21.4698 14.4695 21.47 14.4693 21.4702 14.4691Z" fill="#5B5EA6"/>
<path d="M47.32 24C47.232 24 47.164 23.976 47.116 23.928C47.068 23.872 47.044 23.804 47.044 23.724V15.888C47.044 15.8 47.068 15.732 47.116 15.684C47.164 15.628 47.232 15.6 47.32 15.6H47.932C48.02 15.6 48.088 15.628 48.136 15.684C48.192 15.732 48.22 15.8 48.22 15.888V19.2H52.348V15.888C52.348 15.8 52.372 15.732 52.42 15.684C52.476 15.628 52.544 15.6 52.624 15.6H53.236C53.324 15.6 53.392 15.628 53.44 15.684C53.496 15.732 53.524 15.8 53.524 15.888V23.724C53.524 23.804 53.496 23.872 53.44 23.928C53.392 23.976 53.324 24 53.236 24H52.624C52.544 24 52.476 23.976 52.42 23.928C52.372 23.872 52.348 23.804 52.348 23.724V20.28H48.22V23.724C48.22 23.804 48.192 23.872 48.136 23.928C48.088 23.976 48.02 24 47.932 24H47.32ZM57.9987 24.12C57.3907 24.12 56.8827 24.004 56.4747 23.772C56.0667 23.54 55.7547 23.22 55.5387 22.812C55.3227 22.396 55.2027 21.924 55.1787 21.396C55.1707 21.26 55.1667 21.088 55.1667 20.88C55.1667 20.664 55.1707 20.492 55.1787 20.364C55.2027 19.828 55.3227 19.356 55.5387 18.948C55.7627 18.54 56.0787 18.22 56.4867 17.988C56.8947 17.756 57.3987 17.64 57.9987 17.64C58.5987 17.64 59.1027 17.756 59.5107 17.988C59.9187 18.22 60.2307 18.54 60.4467 18.948C60.6707 19.356 60.7947 19.828 60.8187 20.364C60.8267 20.492 60.8307 20.664 60.8307 20.88C60.8307 21.088 60.8267 21.26 60.8187 21.396C60.7947 21.924 60.6747 22.396 60.4587 22.812C60.2427 23.22 59.9307 23.54 59.5227 23.772C59.1147 24.004 58.6067 24.12 57.9987 24.12ZM57.9987 23.196C58.4947 23.196 58.8907 23.04 59.1867 22.728C59.4827 22.408 59.6427 21.944 59.6667 21.336C59.6747 21.216 59.6787 21.064 59.6787 20.88C59.6787 20.696 59.6747 20.544 59.6667 20.424C59.6427 19.816 59.4827 19.356 59.1867 19.044C58.8907 18.724 58.4947 18.564 57.9987 18.564C57.5027 18.564 57.1027 18.724 56.7987 19.044C56.5027 19.356 56.3467 19.816 56.3307 20.424C56.3227 20.544 56.3187 20.696 56.3187 20.88C56.3187 21.064 56.3227 21.216 56.3307 21.336C56.3467 21.944 56.5027 22.408 56.7987 22.728C57.1027 23.04 57.5027 23.196 57.9987 23.196ZM62.6093 24C62.5293 24 62.4613 23.976 62.4053 23.928C62.3573 23.872 62.3333 23.804 62.3333 23.724V18.036C62.3333 17.956 62.3573 17.892 62.4053 17.844C62.4613 17.788 62.5293 17.76 62.6093 17.76H63.1493C63.2293 17.76 63.2933 17.788 63.3413 17.844C63.3973 17.892 63.4253 17.956 63.4253 18.036V18.456C63.6093 18.208 63.8413 18.012 64.1213 17.868C64.4013 17.716 64.7373 17.64 65.1293 17.64C66.0333 17.632 66.6733 18 67.0493 18.744C67.2333 18.408 67.5013 18.14 67.8533 17.94C68.2053 17.74 68.6053 17.64 69.0533 17.64C69.4693 17.64 69.8453 17.736 70.1813 17.928C70.5253 18.12 70.7933 18.412 70.9853 18.804C71.1853 19.188 71.2853 19.672 71.2853 20.256V23.724C71.2853 23.804 71.2573 23.872 71.2013 23.928C71.1533 23.976 71.0893 24 71.0093 24H70.4453C70.3653 24 70.2973 23.976 70.2413 23.928C70.1933 23.872 70.1693 23.804 70.1693 23.724V20.364C70.1693 19.916 70.1053 19.564 69.9773 19.308C69.8493 19.052 69.6773 18.872 69.4613 18.768C69.2453 18.664 69.0093 18.612 68.7533 18.612C68.5453 18.612 68.3333 18.664 68.1173 18.768C67.9013 18.872 67.7213 19.052 67.5773 19.308C67.4413 19.564 67.3733 19.916 67.3733 20.364V23.724C67.3733 23.804 67.3453 23.872 67.2893 23.928C67.2413 23.976 67.1773 24 67.0973 24H66.5333C66.4533 24 66.3853 23.976 66.3293 23.928C66.2813 23.872 66.2573 23.804 66.2573 23.724V20.364C66.2573 19.916 66.1893 19.564 66.0533 19.308C65.9173 19.052 65.7413 18.872 65.5253 18.768C65.3093 18.664 65.0813 18.612 64.8413 18.612C64.6333 18.612 64.4213 18.664 64.2053 18.768C63.9893 18.872 63.8093 19.052 63.6653 19.308C63.5293 19.564 63.4613 19.912 63.4613 20.352V23.724C63.4613 23.804 63.4333 23.872 63.3773 23.928C63.3293 23.976 63.2653 24 63.1853 24H62.6093ZM75.4814 24.12C74.6574 24.12 74.0014 23.868 73.5134 23.364C73.0254 22.852 72.7574 22.156 72.7094 21.276C72.7014 21.172 72.6974 21.04 72.6974 20.88C72.6974 20.712 72.7014 20.576 72.7094 20.472C72.7414 19.904 72.8734 19.408 73.1054 18.984C73.3374 18.552 73.6534 18.22 74.0534 17.988C74.4614 17.756 74.9374 17.64 75.4814 17.64C76.0894 17.64 76.5974 17.768 77.0054 18.024C77.4214 18.28 77.7374 18.644 77.9534 19.116C78.1694 19.588 78.2774 20.14 78.2774 20.772V20.976C78.2774 21.064 78.2494 21.132 78.1934 21.18C78.1454 21.228 78.0814 21.252 78.0014 21.252H73.8494C73.8494 21.26 73.8494 21.276 73.8494 21.3C73.8494 21.324 73.8494 21.344 73.8494 21.36C73.8654 21.688 73.9374 21.996 74.0654 22.284C74.1934 22.564 74.3774 22.792 74.6174 22.968C74.8574 23.144 75.1454 23.232 75.4814 23.232C75.7694 23.232 76.0094 23.188 76.2014 23.1C76.3934 23.012 76.5494 22.916 76.6694 22.812C76.7894 22.7 76.8694 22.616 76.9094 22.56C76.9814 22.456 77.0374 22.396 77.0774 22.38C77.1174 22.356 77.1814 22.344 77.2694 22.344H77.8454C77.9254 22.344 77.9894 22.368 78.0374 22.416C78.0934 22.456 78.1174 22.516 78.1094 22.596C78.1014 22.716 78.0374 22.864 77.9174 23.04C77.7974 23.208 77.6254 23.376 77.4014 23.544C77.1774 23.712 76.9054 23.852 76.5854 23.964C76.2654 24.068 75.8974 24.12 75.4814 24.12ZM73.8494 20.424H77.1374V20.388C77.1374 20.028 77.0694 19.708 76.9334 19.428C76.8054 19.148 76.6174 18.928 76.3694 18.768C76.1214 18.6 75.8254 18.516 75.4814 18.516C75.1374 18.516 74.8414 18.6 74.5934 18.768C74.3534 18.928 74.1694 19.148 74.0414 19.428C73.9134 19.708 73.8494 20.028 73.8494 20.388V20.424Z" fill="#5B5EA6"/>
</svg>
