<svg width="24" height="24" viewBox="0 0 24 24" fill="none" xmlns="http://www.w3.org/2000/svg">
<path fill-rule="evenodd" clip-rule="evenodd" d="M9.7019 5.3587C10.3836 4.67704 10.8426 4.22027 11.2301 3.92464C11.6002 3.6422 11.8157 3.57837 12 3.57837C12.1843 3.57837 12.3998 3.6422 12.7699 3.92464C13.1574 4.22027 13.6164 4.67704 14.2981 5.3587L16.4697 7.53027L16.7123 7.77291C17.6227 8.68328 17.9207 9.00011 18.0787 9.38154C18.2367 9.76298 18.25 10.1978 18.25 11.4852V14.9999C18.25 16.4354 18.2484 17.4365 18.1469 18.1918C18.0482 18.9256 17.8678 19.3142 17.591 19.5909C17.3142 19.8677 16.9257 20.0481 16.1919 20.1468C15.4365 20.2484 14.4354 20.2499 13 20.2499H11C9.56458 20.2499 8.56347 20.2484 7.80812 20.1468C7.07434 20.0481 6.68577 19.8677 6.40901 19.5909C6.13225 19.3142 5.9518 18.9256 5.85315 18.1918C5.75159 17.4365 5.75 16.4354 5.75 14.9999V11.4852C5.75 10.1978 5.76328 9.76298 5.92127 9.38154C6.0788 9.00123 6.37558 8.68514 7.27968 7.78092C7.28235 7.77825 7.28502 7.77559 7.28769 7.77291L7.53033 7.53027C7.53049 7.53011 7.53065 7.52995 7.53081 7.52979L9.7019 5.3587ZM6.47015 6.46913L8.64124 4.29804L8.67801 4.26127C9.31331 3.62593 9.84307 3.09613 10.3202 2.7321C10.8238 2.34787 11.3559 2.07837 12 2.07837C12.6441 2.07837 13.1762 2.34787 13.6798 2.7321C14.1569 3.09613 14.6867 3.62592 15.322 4.26126L15.3588 4.29804L17.5296 6.46891C17.5299 6.46915 17.5301 6.46938 17.5303 6.46961L17.773 6.71225L17.7745 6.71378L17.8738 6.81306C17.9389 6.87803 18.0022 6.94133 18.0639 7.00319L22.5303 11.4696C22.8232 11.7625 22.8232 12.2374 22.5303 12.5303C22.2374 12.8232 21.7626 12.8232 21.4697 12.5303L19.7488 10.8094C19.7502 10.9783 19.7501 11.1555 19.75 11.3426L19.75 11.4852V14.9999V15.0548C19.75 16.4224 19.75 17.5247 19.6335 18.3917C19.5125 19.2918 19.2536 20.0497 18.6516 20.6516C18.0497 21.2535 17.2919 21.5124 16.3918 21.6334C15.5248 21.75 14.4225 21.75 13.0549 21.7499H13H11H10.9451C9.57754 21.75 8.47522 21.75 7.60825 21.6334C6.70814 21.5124 5.95027 21.2535 5.34835 20.6516C4.74643 20.0497 4.48754 19.2918 4.36652 18.3917C4.24996 17.5247 4.24998 16.4224 4.25 15.0548L4.25 14.9999V11.4852L4.24995 11.3426C4.24987 11.1555 4.24978 10.9783 4.25116 10.8094L2.53033 12.5303C2.23744 12.8232 1.76256 12.8232 1.46967 12.5303C1.17678 12.2374 1.17678 11.7625 1.46967 11.4696L5.93593 7.00335C5.99765 6.94144 6.06107 6.87809 6.12616 6.81306L6.12616 6.81306L6.22625 6.71303L6.22703 6.71225L6.46967 6.46961C6.46983 6.46945 6.46999 6.46929 6.47015 6.46913Z" fill="#5B5EA6"/>
</svg>
