<svg width="16" height="16" viewBox="0 0 16 16" fill="none" xmlns="http://www.w3.org/2000/svg">
<g clip-path="url(#clip0_301_93)">
<path fill-rule="evenodd" clip-rule="evenodd" d="M6.08333 0.666626C6.08333 0.252412 5.74755 -0.083374 5.33333 -0.083374C4.91912 -0.083374 4.58333 0.252412 4.58333 0.666626V1.46523C2.71431 2.04831 1.34363 3.7519 1.25452 5.79277C1.24999 5.89656 1.24999 6.0149 1.25 6.20102L1.25 6.22218V7.99996L1.25 8.02733C1.25 8.93603 1.24999 9.65621 1.2898 10.2396C1.33047 10.8356 1.41517 11.3435 1.61157 11.8177C2.09367 12.9816 3.01837 13.9063 4.18225 14.3884C4.65641 14.5848 5.16431 14.6695 5.76032 14.7102C6.34374 14.75 7.0639 14.75 7.97256 14.75H7.97262H8H8.02739H8.02744C8.9361 14.75 9.65626 14.75 10.2397 14.7102C10.8357 14.6695 11.3436 14.5848 11.8177 14.3884C12.9816 13.9063 13.9063 12.9816 14.3884 11.8177C14.5848 11.3435 14.6695 10.8356 14.7102 10.2396C14.75 9.65622 14.75 8.93606 14.75 8.0274V8.02734V7.99996V7.97258V7.97252C14.75 7.06386 14.75 6.3437 14.7102 5.76028C14.6695 5.16427 14.5848 4.65637 14.3884 4.18221C13.9063 3.01833 12.9816 2.09363 11.8177 1.61153C11.687 1.55737 11.5537 1.51171 11.4167 1.47312V0.666626C11.4167 0.252412 11.0809 -0.083374 10.6667 -0.083374C10.2525 -0.083374 9.91667 0.252412 9.91667 0.666626V1.27214C9.39534 1.24995 8.7752 1.24996 8.02738 1.24996L8 1.24996H6.22222L6.20106 1.24996H6.20106L6.08333 1.25001V0.666626ZM10.6667 3.41663C10.2889 3.41663 9.97637 3.13733 9.92429 2.77397C9.43223 2.75027 8.81941 2.74996 8 2.74996H6.22222L6.07875 2.75004C6.03726 3.125 5.71935 3.41663 5.33333 3.41663C5.0512 3.41663 4.80545 3.26084 4.67741 3.03059C3.58232 3.51878 2.80829 4.5939 2.75309 5.8582C2.75018 5.92492 2.75 6.00793 2.75 6.22218V7.99996C2.75 8.9421 2.75041 9.61115 2.78632 10.1375C2.82178 10.6572 2.88931 10.9828 2.99739 11.2437C3.32725 12.04 3.95994 12.6727 4.75628 13.0026C5.0172 13.1106 5.34279 13.1782 5.86243 13.2136C6.38881 13.2496 7.05786 13.25 8 13.25C8.94215 13.25 9.61119 13.2496 10.1376 13.2136C10.6572 13.1782 10.9828 13.1106 11.2437 13.0026C12.0401 12.6727 12.6728 12.04 13.0026 11.2437C13.1107 10.9828 13.1782 10.6572 13.2137 10.1375C13.2496 9.61115 13.25 8.9421 13.25 7.99996C13.25 7.05781 13.2496 6.38877 13.2137 5.86239C13.1782 5.34275 13.1107 5.01716 13.0026 4.75624C12.6837 3.98627 12.0816 3.36929 11.3223 3.03111C11.1942 3.26107 10.9486 3.41663 10.6667 3.41663ZM4.66667 4.58329C4.25245 4.58329 3.91667 4.91908 3.91667 5.33329C3.91667 5.74751 4.25245 6.08329 4.66667 6.08329H11.3333C11.7475 6.08329 12.0833 5.74751 12.0833 5.33329C12.0833 4.91908 11.7475 4.58329 11.3333 4.58329H4.66667Z" fill="#263D36"/>
</g>
<defs>
<clipPath id="clip0_301_93">
<rect width="16" height="16" fill="white"/>
</clipPath>
</defs>
</svg>
