<svg width="40" height="40" viewBox="0 0 40 40" fill="none" xmlns="http://www.w3.org/2000/svg">
<circle cx="20" cy="20" r="20" fill="#5C5EA6"/>
<path d="M28.6065 18.9009L16.2335 10.2592C16.1293 10.1864 16.01 10.1467 15.8879 10.1441C15.7658 10.1414 15.6452 10.1761 15.5387 10.2443C15.4322 10.3126 15.3435 10.4121 15.2818 10.5325C15.22 10.653 15.1875 10.79 15.1875 10.9296V28.2131C15.1875 28.3527 15.22 28.4898 15.2818 28.6102C15.3435 28.7307 15.4322 28.8301 15.5387 28.8984C15.6452 28.9667 15.7658 29.0013 15.8879 28.9987C16.01 28.9961 16.1293 28.9563 16.2335 28.8835L28.6065 20.2418C28.707 20.1716 28.79 20.0731 28.8476 19.9557C28.9052 19.8383 28.9355 19.706 28.9355 19.5714C28.9355 19.4368 28.9052 19.3044 28.8476 19.187C28.79 19.0696 28.707 18.9711 28.6065 18.9009Z" fill="white"/>
<path d="M28.6065 18.9009L16.2335 10.2592C16.1293 10.1864 16.01 10.1467 15.8879 10.1441C15.7658 10.1414 15.6452 10.1761 15.5387 10.2443C15.4322 10.3126 15.3435 10.4121 15.2818 10.5325C15.22 10.653 15.1875 10.79 15.1875 10.9296V28.2131C15.1875 28.3527 15.22 28.4898 15.2818 28.6102C15.3435 28.7307 15.4322 28.8301 15.5387 28.8984C15.6452 28.9667 15.7658 29.0013 15.8879 28.9987C16.01 28.9961 16.1293 28.9563 16.2335 28.8835L28.6065 20.2418C28.707 20.1716 28.79 20.0731 28.8476 19.9557C28.9052 19.8383 28.9355 19.706 28.9355 19.5714C28.9355 19.4368 28.9052 19.3044 28.8476 19.187C28.79 19.0696 28.707 18.9711 28.6065 18.9009Z" stroke="white" stroke-width="2" stroke-linecap="round" stroke-linejoin="round"/>
</svg>
